<svg version="1.0" 
    xmlns="http://www.w3.org/2000/svg" width="315.000000pt" height="315.000000pt" viewBox="0 0 315.000000 315.000000" preserveAspectRatio="xMidYMid meet">
    <metadata>
Created by potrace 1.12, written by Peter Selinger 2001-2015
    </metadata>
    <g transform="translate(0.000000,315.000000) scale(0.100000,-0.100000)" fill="#2e86f8" stroke="none">
        <path d="M793 2518 c-6 -7 -22 -33 -35 -58 -50 -91 -70 -125 -78 -135 -4 -5
-19 -30 -32 -55 -14 -25 -35 -62 -47 -82 -11 -21 -30 -54 -42 -75 -11 -20 -31
-52 -45 -72 -21 -32 -22 -37 -9 -57 8 -13 23 -38 33 -56 11 -18 33 -57 51 -86
17 -29 31 -55 31 -57 0 -3 16 -29 35 -59 19 -30 35 -58 35 -61 0 -4 13 -25 28
-48 15 -23 34 -55 42 -72 30 -63 34 -65 151 -65 59 0 110 -4 113 -9 3 -5 -19
-49 -49 -100 -30 -50 -55 -93 -55 -95 0 -3 21 -40 46 -83 26 -43 58 -98 72
-123 13 -25 50 -88 81 -140 30 -52 65 -113 76 -135 l20 -40 306 -3 306 -2 27
40 c14 22 26 42 26 45 0 3 11 24 26 46 14 22 34 56 45 75 10 19 29 51 40 72
12 20 33 57 47 82 14 25 32 56 41 70 9 14 25 41 35 61 l19 36 -55 94 c-31 52
-54 97 -51 102 2 4 53 7 112 7 117 0 114 -1 150 63 12 20 30 54 42 75 12 20
25 42 29 47 4 6 19 30 32 55 14 25 35 62 47 83 11 20 30 52 40 71 11 19 31 53
45 75 31 48 32 64 7 99 -10 15 -29 47 -43 72 -41 74 -63 111 -113 195 -26 44
-61 105 -77 135 -16 30 -34 60 -40 67 -8 10 -81 13 -315 13 -280 0 -304 -1
-310 -17 -4 -10 -21 -41 -37 -68 -17 -28 -38 -64 -46 -80 -17 -33 -30 -36 -45
-9 -5 10 -24 41 -40 69 -17 27 -36 62 -43 78 l-12 27 -304 0 c-231 0 -306 -3
-313 -12z m502 -105 c-19 -29 -70 -114 -97 -163 -11 -19 -43 -74 -70 -122
l-50 -88 -229 0 c-212 0 -229 1 -229 18 0 9 9 28 20 42 11 14 20 28 20 33 0 4
11 26 26 48 14 22 34 56 45 75 10 19 27 49 38 67 10 17 30 52 44 77 l25 45
224 5 c123 3 229 1 236 -4 10 -7 9 -14 -3 -33z m855 22 c0 -8 -4 -16 -9 -20
-6 -3 -16 -18 -24 -33 -20 -39 -65 -118 -106 -187 -20 -33 -43 -74 -51 -90
-33 -68 -20 -65 -272 -65 -246 0 -248 0 -210 51 9 13 23 35 30 48 8 13 23 40
34 60 12 20 32 56 46 81 14 25 33 57 43 72 11 14 19 29 19 33 0 4 9 20 21 36
l20 29 217 2 c119 2 223 1 230 -1 6 -2 12 -9 12 -16z m-717 -106 c20 -35 40
-69 43 -75 3 -7 -10 -36 -29 -65 -18 -30 -50 -84 -71 -121 l-36 -68 25 -40
c14 -22 25 -42 25 -45 0 -2 21 -38 46 -79 l46 -74 -41 -68 c-23 -37 -41 -71
-41 -76 0 -4 -6 -8 -14 -8 -8 0 -34 35 -58 77 -23 43 -54 98 -68 123 -14 25
-45 78 -69 119 l-44 75 18 30 c31 54 74 130 114 200 11 19 30 52 43 73 13 21
29 51 36 66 7 16 18 27 25 24 6 -2 29 -33 50 -68z m820 44 c7 -16 24 -46 37
-68 12 -22 34 -60 48 -85 13 -25 28 -49 32 -55 4 -5 17 -27 29 -47 12 -21 30
-55 42 -75 24 -43 32 -23 -100 -248 -22 -38 -53 -96 -68 -127 -16 -33 -35 -57
-44 -58 -9 0 -29 25 -48 63 -39 75 -56 106 -98 175 -18 29 -33 55 -33 58 0 3
-14 26 -31 50 l-31 46 31 49 c17 28 31 52 31 55 0 2 11 23 26 45 14 22 33 55
43 72 10 18 30 52 45 77 15 25 31 57 37 73 6 15 17 27 24 27 8 0 20 -12 28
-27z m-1152 -448 c14 -22 37 -60 51 -85 14 -25 35 -62 47 -82 11 -21 30 -54
41 -73 10 -19 31 -53 46 -75 15 -22 24 -43 21 -47 -4 -3 -109 -5 -234 -4 -259
2 -229 -8 -289 100 -50 90 -71 127 -99 171 -45 71 -65 110 -65 125 0 13 31 15
227 13 l227 -3 27 -40z m831 28 c10 -9 18 -20 18 -24 0 -5 45 -86 100 -180 55
-95 99 -177 97 -183 -3 -10 -163 -10 -179 0 -3 2 -23 32 -42 67 -20 34 -49 85
-65 112 l-29 50 -138 3 c-111 2 -142 6 -156 19 -10 9 -18 20 -18 24 0 5 -13
31 -30 57 -16 27 -30 54 -30 61 0 8 64 11 227 11 197 0 229 -2 245 -17z m-202
-244 c0 -6 -8 -23 -18 -37 -11 -15 -32 -52 -49 -82 -57 -104 -86 -155 -102
-180 -9 -14 -25 -42 -36 -62 l-19 -37 -226 -3 c-124 -2 -229 1 -235 5 -6 5 -3
20 9 40 11 18 30 53 44 80 l24 47 143 0 144 0 43 77 c101 179 82 163 189 163
58 0 89 -4 89 -11z m107 -76 c11 -21 37 -67 58 -103 52 -91 72 -125 94 -162
10 -18 27 -47 36 -64 21 -34 21 -35 -35 -123 -22 -34 -40 -65 -40 -67 0 -2
-24 -43 -52 -91 -29 -48 -60 -101 -68 -117 -17 -31 -31 -35 -42 -14 -5 7 -28
48 -53 91 -25 43 -45 79 -45 81 0 2 -25 45 -55 95 -30 51 -55 100 -55 111 0
10 21 54 47 97 25 43 58 101 73 128 28 53 64 115 87 153 19 30 26 28 50 -15z
m-318 -432 c12 -16 21 -31 21 -33 0 -7 170 -301 182 -316 6 -7 8 -15 5 -18 -3
-3 -108 -6 -233 -6 l-228 0 -25 44 c-13 24 -29 52 -35 63 -37 66 -131 224
-148 248 -10 15 -16 32 -13 37 4 6 95 10 230 10 l224 0 20 -29z"></path>
    </g>
</svg>