 <svg version="1.0" xmlns="http://www.w3.org/2000/svg" width="700.000000pt" height="315.000000pt" viewBox="0 0 700.000000 315.000000" preserveAspectRatio="xMidYMid meet">
<metadata>
Created by potrace 1.12, written by Peter Selinger 2001-2015
</metadata>
<g transform="translate(0.000000,315.000000) scale(0.100000,-0.100000)" fill="#2e86f8" stroke="none">
<path d="M793 2518 c-6 -7 -22 -33 -35 -58 -50 -91 -70 -125 -78 -135 -4 -5
-19 -30 -32 -55 -14 -25 -35 -62 -47 -82 -11 -21 -30 -54 -42 -75 -11 -20 -31
-52 -45 -72 -21 -32 -22 -37 -9 -57 8 -13 23 -38 33 -56 11 -18 33 -57 51 -86
17 -29 31 -55 31 -57 0 -3 16 -29 35 -59 19 -30 35 -58 35 -61 0 -4 13 -25 28
-48 15 -23 34 -55 42 -72 30 -63 34 -65 151 -65 59 0 110 -4 113 -9 3 -5 -19
-49 -49 -100 -30 -50 -55 -93 -55 -95 0 -3 21 -40 46 -83 26 -43 58 -98 72
-123 13 -25 50 -88 81 -140 30 -52 65 -113 76 -135 l20 -40 306 -3 306 -2 27
40 c14 22 26 42 26 45 0 3 11 24 26 46 14 22 34 56 45 75 10 19 29 51 40 72
12 20 33 57 47 82 14 25 32 56 41 70 9 14 25 41 35 61 l19 36 -55 94 c-31 52
-54 97 -51 102 2 4 53 7 112 7 117 0 114 -1 150 63 12 20 30 54 42 75 12 20
25 42 29 47 4 6 19 30 32 55 14 25 35 62 47 83 11 20 30 52 40 71 11 19 31 53
45 75 31 48 32 64 7 99 -10 15 -29 47 -43 72 -41 74 -63 111 -113 195 -26 44
-61 105 -77 135 -16 30 -34 60 -40 67 -8 10 -81 13 -315 13 -280 0 -304 -1
-310 -17 -4 -10 -21 -41 -37 -68 -17 -28 -38 -64 -46 -80 -17 -33 -30 -36 -45
-9 -5 10 -24 41 -40 69 -17 27 -36 62 -43 78 l-12 27 -304 0 c-231 0 -306 -3
-313 -12z m502 -105 c-19 -29 -70 -114 -97 -163 -11 -19 -43 -74 -70 -122
l-50 -88 -229 0 c-212 0 -229 1 -229 18 0 9 9 28 20 42 11 14 20 28 20 33 0 4
11 26 26 48 14 22 34 56 45 75 10 19 27 49 38 67 10 17 30 52 44 77 l25 45
224 5 c123 3 229 1 236 -4 10 -7 9 -14 -3 -33z m855 22 c0 -8 -4 -16 -9 -20
-6 -3 -16 -18 -24 -33 -20 -39 -65 -118 -106 -187 -20 -33 -43 -74 -51 -90
-33 -68 -20 -65 -272 -65 -246 0 -248 0 -210 51 9 13 23 35 30 48 8 13 23 40
34 60 12 20 32 56 46 81 14 25 33 57 43 72 11 14 19 29 19 33 0 4 9 20 21 36
l20 29 217 2 c119 2 223 1 230 -1 6 -2 12 -9 12 -16z m-717 -106 c20 -35 40
-69 43 -75 3 -7 -10 -36 -29 -65 -18 -30 -50 -84 -71 -121 l-36 -68 25 -40
c14 -22 25 -42 25 -45 0 -2 21 -38 46 -79 l46 -74 -41 -68 c-23 -37 -41 -71
-41 -76 0 -4 -6 -8 -14 -8 -8 0 -34 35 -58 77 -23 43 -54 98 -68 123 -14 25
-45 78 -69 119 l-44 75 18 30 c31 54 74 130 114 200 11 19 30 52 43 73 13 21
29 51 36 66 7 16 18 27 25 24 6 -2 29 -33 50 -68z m820 44 c7 -16 24 -46 37
-68 12 -22 34 -60 48 -85 13 -25 28 -49 32 -55 4 -5 17 -27 29 -47 12 -21 30
-55 42 -75 24 -43 32 -23 -100 -248 -22 -38 -53 -96 -68 -127 -16 -33 -35 -57
-44 -58 -9 0 -29 25 -48 63 -39 75 -56 106 -98 175 -18 29 -33 55 -33 58 0 3
-14 26 -31 50 l-31 46 31 49 c17 28 31 52 31 55 0 2 11 23 26 45 14 22 33 55
43 72 10 18 30 52 45 77 15 25 31 57 37 73 6 15 17 27 24 27 8 0 20 -12 28
-27z m-1152 -448 c14 -22 37 -60 51 -85 14 -25 35 -62 47 -82 11 -21 30 -54
41 -73 10 -19 31 -53 46 -75 15 -22 24 -43 21 -47 -4 -3 -109 -5 -234 -4 -259
2 -229 -8 -289 100 -50 90 -71 127 -99 171 -45 71 -65 110 -65 125 0 13 31 15
227 13 l227 -3 27 -40z m831 28 c10 -9 18 -20 18 -24 0 -5 45 -86 100 -180 55
-95 99 -177 97 -183 -3 -10 -163 -10 -179 0 -3 2 -23 32 -42 67 -20 34 -49 85
-65 112 l-29 50 -138 3 c-111 2 -142 6 -156 19 -10 9 -18 20 -18 24 0 5 -13
31 -30 57 -16 27 -30 54 -30 61 0 8 64 11 227 11 197 0 229 -2 245 -17z m-202
-244 c0 -6 -8 -23 -18 -37 -11 -15 -32 -52 -49 -82 -57 -104 -86 -155 -102
-180 -9 -14 -25 -42 -36 -62 l-19 -37 -226 -3 c-124 -2 -229 1 -235 5 -6 5 -3
20 9 40 11 18 30 53 44 80 l24 47 143 0 144 0 43 77 c101 179 82 163 189 163
58 0 89 -4 89 -11z m107 -76 c11 -21 37 -67 58 -103 52 -91 72 -125 94 -162
10 -18 27 -47 36 -64 21 -34 21 -35 -35 -123 -22 -34 -40 -65 -40 -67 0 -2
-24 -43 -52 -91 -29 -48 -60 -101 -68 -117 -17 -31 -31 -35 -42 -14 -5 7 -28
48 -53 91 -25 43 -45 79 -45 81 0 2 -25 45 -55 95 -30 51 -55 100 -55 111 0
10 21 54 47 97 25 43 58 101 73 128 28 53 64 115 87 153 19 30 26 28 50 -15z
m-318 -432 c12 -16 21 -31 21 -33 0 -7 170 -301 182 -316 6 -7 8 -15 5 -18 -3
-3 -108 -6 -233 -6 l-228 0 -25 44 c-13 24 -29 52 -35 63 -37 66 -131 224
-148 248 -10 15 -16 32 -13 37 4 6 95 10 230 10 l224 0 20 -29z"></path>
<path d="M3105 1897 c-3 -7 -4 -127 -3 -267 l3 -255 139 -3 c159 -3 214 9 262
59 27 28 29 35 27 102 -2 68 -3 73 -35 98 l-33 27 23 24 c18 20 22 36 22 89 0
58 -3 68 -27 91 -16 14 -38 31 -50 37 -32 16 -322 15 -328 -2z m243 -122 c16
-6 15 -40 -2 -54 -8 -7 -32 -11 -53 -9 -31 2 -39 7 -41 26 -7 51 19 61 96 37z
m14 -202 c43 -38 12 -76 -59 -71 -44 3 -48 5 -51 31 -2 16 -1 35 2 43 8 20 85
18 108 -3z"></path>
<path d="M3534 1896 c-3 -8 6 -33 21 -56 14 -23 35 -57 46 -76 10 -19 29 -51
41 -71 12 -21 28 -50 35 -65 8 -15 19 -30 25 -34 6 -4 9 -44 6 -105 -2 -62 1
-102 8 -109 6 -6 38 -10 75 -8 l64 3 3 103 c2 93 6 108 30 145 31 49 38 61 84
146 38 71 58 87 58 47 0 -33 14 -40 85 -41 l60 0 0 -200 0 -200 64 -3 c37 -2
69 2 75 8 7 7 11 78 11 203 l0 192 70 5 70 5 0 60 0 60 -294 0 -295 0 -39 -77
c-22 -43 -45 -78 -52 -78 -6 0 -20 19 -31 43 -10 23 -29 59 -41 80 l-23 37
-75 0 c-56 0 -77 -4 -81 -14z"></path>
<path d="M4536 1901 c-8 -12 0 -507 8 -520 10 -16 338 -15 354 1 9 9 15 9 24
0 7 -7 39 -12 74 -12 66 0 80 8 93 57 7 28 8 28 92 28 83 0 84 0 87 -26 5 -46
32 -60 103 -57 61 3 64 4 62 28 -1 27 -45 155 -56 167 -4 3 -7 17 -7 29 0 13
-4 26 -10 29 -5 3 -10 16 -10 29 0 12 -3 26 -7 29 -6 7 -24 54 -60 157 -23 69
-27 71 -106 68 l-71 -3 -19 -50 c-10 -27 -23 -59 -27 -70 -5 -11 -14 -38 -21
-60 -7 -22 -17 -44 -21 -50 -4 -5 -8 -19 -8 -31 0 -13 -4 -26 -10 -29 -5 -3
-10 -16 -10 -29 0 -12 -4 -26 -8 -31 -7 -9 -13 -27 -38 -113 -6 -21 -24 -4
-24 22 0 40 -21 48 -125 45 -102 -3 -119 3 -113 42 3 23 7 24 98 29 l95 5 3
54 c2 30 -1 58 -7 64 -6 6 -50 11 -98 11 l-88 1 0 30 0 30 115 5 115 5 3 48
c5 77 5 77 -199 77 -98 0 -180 -4 -183 -9z m668 -251 c8 -30 12 -58 10 -62 -3
-5 -21 -8 -41 -8 -34 0 -35 1 -29 28 4 15 10 41 12 57 13 74 26 70 48 -15z"></path>
<path d="M5484 1899 c-8 -14 -7 -506 1 -520 10 -15 121 -11 135 6 8 9 11 40 9
87 -4 64 -2 73 14 76 20 4 57 -24 57 -43 0 -14 42 -98 60 -120 9 -11 31 -15
82 -15 91 0 94 10 37 116 l-44 83 27 28 c27 29 48 87 48 136 0 55 -40 126 -85
152 -39 23 -51 25 -188 25 -98 0 -148 -4 -153 -11z m256 -152 c14 -27 14 -29
-9 -48 -30 -25 -70 -35 -90 -22 -14 9 -18 37 -12 96 1 4 22 7 48 5 40 -3 50
-7 63 -31z"></path>
<path d="M5942 1898 c-14 -14 -16 -86 -2 -108 6 -10 28 -14 72 -15 l63 0 5
-200 5 -200 70 0 70 0 5 200 5 200 70 5 70 5 0 60 0 60 -210 3 c-155 2 -214
-1 -223 -10z"></path>
</g>
</svg>